Patient4_TMGait_0pt6_02_right_21_GRF.mot
version=1
nRows=52
nColumns=19
inDegrees=no
endheader
time	F1x	F1y	F1z	M1x	M1y	M1z	F2x	F2y	F2z	M2x	M2y	M2z	EC1x	EC1y	EC1z	EC2x	EC2y	EC2z
25.22	10.1416	750.4012	53.3071	-266.7907	-49.7818	797.5951	-0.42706	2.1515	2.2093	-0.42939	-2.3387	-0.0068537	-0.0592	0.0182	-0.0073	-0.0462	0.0165	0.9585
25.2318	7.2814	745.4368	54.7145	-264.7113	-51.9261	788.1527	-0.47157	2.4975	1.6442	0.10662	-1.6882	1.2852	-0.0592	0.0182	-0.0073	-0.0462	0.0165	0.9585
25.2436	5.3161	739.7342	55.9721	-262.2684	-53.5701	777.8628	-0.49297	2.8325	1.0816	0.60036	-1.0493	2.4104	-0.0592	0.0182	-0.0073	-0.0462	0.0165	0.9585
25.2554	4.314	733.7824	57.0042	-259.653	-54.6275	767.4227	-0.50471	3.1388	0.60194	1.0131	-0.50499	3.3122	-0.0592	0.0182	-0.0073	-0.0462	0.0165	0.9585
25.2671	4.1295	728.0997	57.7804	-257.0797	-55.1309	757.4484	-0.52411	3.4128	0.2349	1.3342	-0.08004	3.9969	-0.0592	0.0182	-0.0073	-0.0462	0.0165	0.9585
25.2789	4.5334	723.1592	58.2804	-254.7541	-55.1488	748.4443	-0.55453	3.6395	-0.0099589	1.5642	0.22063	4.4729	-0.0592	0.0182	-0.0073	-0.0462	0.0165	0.9585
25.2907	5.2956	719.3558	58.51	-252.8498	-54.7658	740.7923	-0.61054	3.7929	-0.1568	1.7056	0.42777	4.7521	-0.0592	0.0182	-0.0073	-0.0462	0.0165	0.9585
25.3025	6.2179	716.9849	58.4815	-251.4945	-54.0579	734.7443	-0.69125	3.8356	-0.22091	1.7579	0.56018	4.8284	-0.0592	0.0182	-0.0073	-0.0462	0.0165	0.9585
25.3143	7.1859	716.2438	58.2422	-250.7664	-53.1128	730.4334	-0.80623	3.7079	-0.23883	1.7086	0.65572	4.6689	-0.0592	0.0182	-0.0073	-0.0462	0.0165	0.9585
25.3261	8.1496	717.2051	57.8408	-250.6931	-51.9976	727.855	-0.95288	3.3111	-0.22486	1.5291	0.72455	4.1786	-0.0592	0.0182	-0.0073	-0.0462	0.0165	0.9585
25.3379	9.1365	719.7944	57.3431	-251.2427	-50.7723	726.8761	-1.1271	2.5348	-0.20252	1.1792	0.7836	3.2414	-0.0592	0.0182	-0.0073	-0.0462	0.0165	0.9585
25.3496	10.2095	723.7763	56.8088	-252.3168	-49.4777	727.2258	-1.3033	1.2504	-0.18393	0.61269	0.83374	1.6991	-0.0592	0.0182	-0.0073	-0.0462	0.0165	0.9585
25.3614	11.4311	728.734	56.2854	-253.7476	-48.1415	728.4759	-1.4494	-0.63102	-0.17342	-0.20588	0.86525	-0.54793	-0.0592	0.0182	-0.0073	-0.0462	0.0165	0.9585
25.3732	12.8446	734.0303	55.8133	-255.2855	-46.7876	730.0189	-1.4875	-3.1133	-0.17436	-1.2784	0.85142	-3.5026	-0.0592	0.0182	-0.0073	-0.0462	0.0165	0.9585
25.385	14.4703	738.8449	55.4042	-256.6123	-45.4191	731.0866	-1.3224	-6.0595	-0.17836	-2.5462	0.74713	-6.9985	-0.0592	0.0182	-0.0073	-0.0462	0.0165	0.9585
25.3968	16.2967	742.2352	55.0786	-257.3691	-44.0553	730.8086	-0.8058	-9.0966	-0.17854	-3.8503	0.49258	-10.5941	-0.0592	0.0182	-0.0073	-0.0462	0.0165	0.9585
25.4086	18.2934	743.3423	54.8417	-257.2289	-42.7102	728.4264	0.22425	-11.5091	-0.15841	-4.8867	0.0084776	-13.4455	-0.0592	0.0182	-0.0073	-0.0462	0.0165	0.9585
25.4204	20.4443	741.6045	54.7261	-255.9767	-41.4291	723.4547	1.9391	-12.1453	-0.10107	-5.1613	-0.79166	-14.2028	-0.0592	0.0182	-0.0073	-0.0462	0.0165	0.9585
25.4321	22.7432	736.8692	54.7531	-253.5545	-40.2458	715.7857	4.4712	-9.3015	0.0072771	-3.9463	-1.9762	-10.8698	-0.0592	0.0182	-0.0073	-0.0462	0.0165	0.9585
25.4439	25.2293	729.3501	54.955	-250.0472	-39.1962	705.6369	7.8622	-0.75245	0.18326	-0.2865	-3.5734	-0.85684	-0.0592	0.0182	-0.0073	-0.0462	0.0165	0.9585
25.4557	27.9523	719.4222	55.3182	-245.6156	-38.27	693.365	11.9638	16.1548	0.43436	6.9571	-5.5124	18.9269	-0.0592	0.0182	-0.0073	-0.0462	0.0165	0.9585
25.4675	30.9492	707.3449	55.7685	-240.3987	-37.4061	679.2063	16.3256	44.1499	0.768	18.9594	-7.5841	51.653	-0.0592	0.0182	-0.0073	-0.0462	0.0165	0.9585
25.4793	34.1981	693.005	56.1244	-234.4215	-36.46	663.0595	20.0211	85.4084	1.1673	36.6576	-9.3506	99.8523	-0.0592	0.0182	-0.0073	-0.0462	0.0165	0.9585
25.4911	37.5819	675.7502	56.1016	-227.5325	-35.2181	644.331	21.5248	140.5055	1.585	60.3051	-10.09	164.1743	-0.0592	0.0182	-0.0073	-0.0462	0.0165	0.9585
25.5029	40.8631	654.4143	55.3539	-219.4068	-33.4409	621.9767	18.7643	207.0904	1.8886	88.9012	-8.7904	241.8702	-0.0592	0.0182	-0.0073	-0.0462	0.0165	0.9585
25.5146	43.7189	627.5246	53.545	-209.61	-30.9266	594.6773	10.5559	279.2581	1.7462	119.8878	-4.5841	326.0914	-0.0592	0.0182	-0.0073	-0.0462	0.0165	0.9585
25.5264	45.7528	593.7354	50.473	-197.7325	-27.6182	561.2222	-1.2137	348.6248	0.040669	149.5831	2.9366	407.0225	-0.0592	0.0182	-0.0073	-0.0462	0.0165	0.9585
25.5382	46.5939	552.2844	46.2013	-183.5309	-23.6923	520.9173	-13.0453	407.4077	-3.9022	174.5977	12.8954	475.3048	-0.0592	0.0182	-0.0073	-0.0462	0.0165	0.9585
25.55	45.9478	503.3204	41.0828	-167.0227	-19.5491	473.9174	-22.7023	452.2155	-9.6536	193.447	23.8204	526.6879	-0.0592	0.0182	-0.0073	-0.0462	0.0165	0.9585
25.5618	43.7069	447.878	35.6419	-148.4977	-15.6752	421.1645	-29.2854	484.5841	-16.5561	206.8077	34.5257	562.8432	-0.0592	0.0182	-0.0073	-0.0462	0.0165	0.9585
25.5736	39.8761	387.8356	30.3293	-128.518	-12.4492	364.3891	-32.936	509.0252	-23.1253	216.6783	43.4773	589.0388	-0.0592	0.0182	-0.0073	-0.0462	0.0165	0.9585
25.5854	34.6075	325.5878	25.4238	-107.8344	-10.0572	305.7754	-34.4171	530.6192	-28.9471	225.2687	50.5017	611.308	-0.0592	0.0182	-0.0073	-0.0462	0.0165	0.9585
25.5971	28.1328	263.9126	21.029	-87.3394	-8.5103	247.8778	-34.5776	553.8654	-33.4859	234.5286	55.451	634.8624	-0.0592	0.0182	-0.0073	-0.0462	0.0165	0.9585
25.6089	20.8917	205.6118	17.1633	-67.9551	-7.6812	193.2505	-34.1574	581.9796	-37.279	245.7811	59.228	663.468	-0.0592	0.0182	-0.0073	-0.0462	0.0165	0.9585
25.6207	13.5001	153.2087	13.8103	-50.5221	-7.3443	144.2099	-33.631	616.1221	-40.5946	259.4704	62.4013	698.5025	-0.0592	0.0182	-0.0073	-0.0462	0.0165	0.9585
25.6325	6.7384	108.4124	10.9088	-35.6243	-7.1776	102.2856	-33.3957	655.1144	-44.1412	275.0251	65.8928	738.7816	-0.0592	0.0182	-0.0073	-0.0462	0.0165	0.9585
25.6443	1.2626	71.9728	8.376	-23.5257	-6.8773	68.1614	-33.5976	696.1549	-48.1151	291.2256	69.9967	781.2454	-0.0592	0.0182	-0.0073	-0.0462	0.0165	0.9585
25.6561	-2.4885	43.7999	6.1223	-14.2071	-6.212	41.7305	-34.2247	735.8297	-52.5901	306.6182	74.7717	822.1866	-0.0592	0.0182	-0.0073	-0.0462	0.0165	0.9585
25.6679	-4.4455	23.2451	4.1515	-7.4458	-5.1647	22.4079	-35.0403	770.829	-57.1979	319.8543	79.7345	857.9438	-0.0592	0.0182	-0.0073	-0.0462	0.0165	0.9585
25.6796	-4.8845	9.3592	2.4845	-2.9082	-3.8572	9.3023	-35.7407	798.4511	-61.5152	329.8625	84.3045	885.5477	-0.0592	0.0182	-0.0073	-0.0462	0.0165	0.9585
25.6914	-4.4476	1.0032	1.224	-0.19356	-2.6004	1.3845	-35.9843	816.7459	-65.1322	335.9185	87.9012	902.8506	-0.0592	0.0182	-0.0073	-0.0462	0.0165	0.9585
25.7032	-3.5779	-3.2247	0.37755	1.1663	-1.5601	-2.6464	-35.5847	824.8142	-67.7002	337.7364	90.0797	908.897	-0.0592	0.0182	-0.0073	-0.0462	0.0165	0.9585
25.715	-2.6206	-4.6239	-0.14273	1.6019	-0.77618	-3.9799	-34.4844	822.9378	-69.1329	335.5197	90.7279	904.0215	-0.0592	0.0182	-0.0073	-0.0462	0.0165	0.9585
25.7268	-1.7307	-4.3264	-0.39308	1.4835	-0.25838	-3.716	-32.7982	812.5568	-69.3987	329.9394	89.8836	889.8461	-0.0592	0.0182	-0.0073	-0.0462	0.0165	0.9585
25.7386	-1.0183	-3.1526	-0.48423	1.0812	0.056857	-2.6187	-30.7127	795.962	-68.7257	322.0004	87.8813	868.8892	-0.0592	0.0182	-0.0073	-0.0462	0.0165	0.9585
25.7504	-0.47428	-1.6908	-0.45659	0.58681	0.20804	-1.262	-28.5126	776.0205	-67.2577	312.9258	85.0143	844.2716	-0.0592	0.0182	-0.0073	-0.0462	0.0165	0.9585
25.7621	-0.11845	-0.28431	-0.38613	0.11225	0.26466	0.04636	-26.4525	755.7259	-65.3034	303.9701	81.7172	819.2246	-0.0592	0.0182	-0.0073	-0.0462	0.0165	0.9585
25.7739	0.11492	0.88574	-0.28341	-0.28506	0.25398	1.1132	-24.7503	737.8323	-63.0226	296.2698	78.2572	796.6934	-0.0592	0.0182	-0.0073	-0.0462	0.0165	0.9585
25.7857	0.22985	1.7657	-0.18325	-0.58916	0.21147	1.9108	-23.5204	724.4264	-60.6413	290.6706	74.909	778.8594	-0.0592	0.0182	-0.0073	-0.0462	0.0165	0.9585
25.7975	0.28436	2.3619	-0.087789	-0.80377	0.152	2.4422	-22.7505	716.7995	-58.2385	287.6767	71.7503	767.0304	-0.0592	0.0182	-0.0073	-0.0462	0.0165	0.9585
25.8093	0.28854	2.734	-0.0078363	-0.94739	0.085852	2.7933	-22.3046	715.3214	-55.9609	287.4031	68.8686	761.5153	-0.0592	0.0182	-0.0073	-0.0462	0.0165	0.9585
25.8211	0.28054	2.9361	0.050461	-1.038	0.029608	2.9993	-21.9836	719.5253	-53.9178	289.6155	66.2856	761.7346	-0.0592	0.0182	-0.0073	-0.0462	0.0165	0.9585
